<?xml version="1.0" standalone="no"?>
<!DOCTYPE svg PUBLIC "-//W3C//DTD SVG 20010904//EN"
 "http://www.w3.org/TR/2001/REC-SVG-20010904/DTD/svg10.dtd">
<svg version="1.0" xmlns="http://www.w3.org/2000/svg"
 width="1024.000000pt" height="360.000000pt" viewBox="0 0 1024.000000 360.000000"
 preserveAspectRatio="xMidYMid meet">

<g transform="translate(0.000000,360.000000) scale(0.100000,-0.100000)"
fill="#000000" stroke="none">
<path d="M1426 2889 c-41 -48 -54 -80 -64 -153 -18 -140 27 -265 160 -438 112
-147 156 -212 184 -273 30 -65 41 -166 25 -232 -12 -49 -54 -123 -70 -123 -4
0 -11 27 -15 61 -8 83 -47 152 -168 301 -212 261 -237 306 -247 431 l-7 82
-36 -37 c-72 -74 -93 -220 -50 -349 25 -72 73 -146 197 -304 165 -210 205
-374 122 -502 l-31 -48 -8 39 c-14 65 -62 142 -213 346 -80 107 -158 221 -173
252 -15 31 -34 57 -42 57 -20 1 -155 -48 -266 -95 -143 -62 -283 -177 -331
-273 -28 -56 -25 -172 6 -236 30 -61 127 -158 203 -203 139 -83 338 -146 558
-178 142 -20 477 -15 608 10 287 54 500 146 624 272 80 80 108 141 108 234 0
97 -23 145 -114 235 -100 99 -261 179 -472 234 l-41 11 -5 75 c-7 104 -46 179
-204 390 -152 204 -185 268 -192 371 -3 41 -8 74 -12 74 -5 0 -20 -14 -34 -31z"/>
<path d="M8456 2402 c-3 -5 -49 -30 -103 -56 -54 -26 -105 -51 -113 -55 -8 -5
-16 -18 -18 -30 -3 -21 -1 -22 43 -16 36 6 50 4 65 -10 19 -17 20 -32 20 -222
0 -111 -2 -203 -5 -203 -3 0 -22 7 -43 16 -20 9 -77 18 -127 21 -76 4 -99 2
-148 -17 -163 -62 -268 -233 -254 -415 10 -137 64 -227 172 -291 38 -22 64
-28 126 -32 90 -5 156 12 230 59 25 16 48 29 51 29 3 0 8 -17 12 -39 10 -64
19 -65 139 -13 93 40 107 49 107 70 0 24 -13 26 -62 7 -8 -3 -26 4 -41 15
l-27 21 0 585 c0 535 -3 609 -24 576z m-218 -627 c20 -9 54 -28 75 -42 l37
-26 0 -233 0 -234 -60 -30 c-50 -25 -71 -30 -135 -30 -47 0 -87 6 -104 14 -40
21 -90 81 -120 146 -23 49 -26 67 -26 165 0 121 13 160 71 219 62 62 179 85
262 51z"/>
<path d="M3362 2289 c-113 -22 -223 -104 -263 -197 -28 -62 -30 -161 -6 -223
31 -81 102 -137 298 -234 191 -95 239 -132 264 -203 30 -90 10 -170 -59 -230
-53 -47 -101 -64 -181 -64 -135 -1 -234 69 -275 195 -13 39 -22 53 -38 55 -22
3 -22 1 -22 -132 0 -74 3 -137 8 -140 20 -12 178 -38 263 -43 80 -5 108 -2
165 15 96 30 171 77 211 135 43 64 57 115 58 212 0 69 -4 86 -27 125 -48 83
-111 131 -281 213 -227 111 -275 162 -265 282 10 119 122 189 272 170 108 -13
191 -99 203 -210 5 -42 8 -45 34 -45 l29 0 0 140 0 139 -37 10 c-55 15 -237
41 -275 40 -18 -1 -52 -5 -76 -10z"/>
<path d="M5726 2019 c-53 -82 -124 -158 -185 -200 -28 -19 -51 -37 -51 -41 0
-5 38 -8 84 -8 l85 0 3 -257 c3 -242 4 -260 25 -298 43 -81 114 -125 200 -125
53 0 85 16 151 76 31 29 40 43 33 53 -8 12 -18 11 -62 -8 -87 -38 -160 -16
-200 59 -17 31 -19 60 -19 267 l0 233 119 0 c104 0 119 2 124 18 2 9 8 25 12
35 7 16 -3 17 -124 17 l-130 0 -3 117 c-2 66 -7 118 -13 120 -5 1 -28 -25 -49
-58z"/>
<path d="M4773 1800 c-95 -47 -112 -59 -113 -79 0 -14 5 -21 13 -18 45 17 56
16 78 -2 24 -19 24 -19 27 -270 3 -241 2 -251 -18 -271 -13 -13 -33 -20 -60
-20 -36 0 -40 -2 -40 -25 l0 -25 175 0 175 0 0 24 c0 23 -5 25 -47 28 l-48 3
-3 263 -2 262 60 39 c33 21 76 42 96 45 73 14 138 -17 170 -81 17 -34 19 -63
19 -269 0 -260 -1 -264 -66 -264 -35 0 -39 -3 -39 -25 l0 -25 175 0 175 0 0
25 c0 23 -4 25 -44 25 -74 0 -76 6 -76 280 0 226 -1 237 -24 285 -61 130 -192
180 -313 120 -28 -14 -72 -44 -97 -66 l-46 -41 0 66 c0 35 -3 66 -7 68 -5 2
-58 -21 -120 -52z"/>
<path d="M6953 1800 c-95 -47 -112 -59 -113 -79 0 -14 5 -21 13 -18 45 17 56
16 78 -2 24 -19 24 -20 27 -263 3 -236 3 -245 -18 -271 -17 -21 -30 -27 -61
-27 -35 0 -39 -3 -39 -25 l0 -25 175 0 175 0 0 25 c0 23 -4 25 -45 25 -34 0
-47 5 -55 19 -6 12 -10 113 -10 260 l0 240 54 41 c35 27 72 44 107 52 48 10
59 9 100 -9 36 -16 51 -30 68 -65 20 -41 21 -60 21 -272 0 -138 -4 -235 -10
-247 -8 -14 -21 -19 -50 -19 -36 0 -40 -3 -40 -25 l0 -25 175 0 175 0 0 25 c0
23 -4 25 -44 25 -76 0 -76 -1 -76 264 0 261 -6 294 -66 364 -95 111 -236 108
-366 -7 -54 -48 -56 -46 -60 39 l-3 55 -112 -55z"/>
<path d="M9605 1829 c-22 -17 -73 -46 -112 -65 -52 -25 -73 -41 -73 -54 0 -15
7 -18 47 -17 72 3 74 -4 71 -285 -3 -224 -4 -238 -23 -252 -11 -9 -37 -16 -57
-16 -34 0 -38 -3 -38 -25 l0 -25 175 0 175 0 0 24 c0 23 -5 25 -47 28 l-48 3
-3 233 c-2 215 -1 235 18 271 28 57 72 84 141 89 54 4 60 2 89 -27 18 -17 36
-31 41 -31 13 0 11 147 -2 155 -6 4 -36 9 -68 12 -77 7 -118 -13 -178 -88
l-48 -59 -3 73 c-2 39 -6 75 -10 79 -4 4 -25 -7 -47 -23z"/>
<path d="M4162 1825 c-112 -52 -172 -109 -172 -165 0 -11 7 -36 15 -56 l14
-35 50 26 50 25 -6 50 c-5 44 -3 54 17 75 53 57 139 57 189 0 32 -36 40 -67
44 -153 l2 -52 -148 -59 c-176 -70 -223 -99 -244 -149 -33 -79 7 -191 80 -225
43 -21 146 -22 200 -3 20 8 53 26 73 41 39 30 44 28 60 -18 6 -19 19 -33 30
-35 11 -2 59 15 107 37 68 31 87 45 87 60 0 19 -4 20 -45 14 -76 -10 -75 -12
-75 245 0 148 -4 239 -12 266 -35 117 -188 171 -316 111z m208 -464 l0 -118
-37 -26 c-21 -14 -51 -31 -66 -36 -92 -35 -177 22 -177 118 0 34 5 44 33 67
29 23 219 113 240 114 4 0 7 -53 7 -119z"/>
<path d="M6321 1814 c-99 -49 -151 -100 -151 -146 0 -34 17 -98 26 -98 3 0 27
12 55 26 39 19 49 29 44 42 -18 48 -16 69 9 100 51 59 140 66 188 14 34 -36
48 -82 48 -156 l0 -61 -128 -48 c-235 -88 -277 -124 -270 -233 7 -107 71 -164
186 -164 69 0 131 20 179 56 38 29 43 27 58 -19 5 -17 18 -33 27 -35 9 -2 55
14 102 34 69 30 86 41 86 59 0 19 -6 21 -52 20 -47 0 -53 2 -59 25 -4 14 -7
128 -8 254 -1 225 -1 230 -26 272 -33 57 -107 94 -186 94 -45 0 -71 -7 -128
-36z m219 -456 l0 -123 -33 -22 c-66 -45 -126 -55 -176 -29 -66 35 -86 125
-38 173 22 23 210 118 240 122 4 1 7 -54 7 -121z"/>
<path d="M8929 1836 c-94 -33 -193 -130 -230 -224 -32 -78 -32 -203 0 -284 43
-110 124 -189 229 -223 40 -13 76 -16 154 -13 90 4 112 9 175 37 44 21 75 41
79 53 9 30 -2 32 -54 10 -71 -31 -168 -44 -232 -32 -138 26 -221 131 -236 301
l-7 69 272 0 c309 0 283 -10 255 95 -30 118 -85 177 -194 209 -64 19 -161 20
-211 2z m205 -79 c49 -38 68 -69 74 -122 l5 -45 -202 0 -201 0 0 23 c1 60 71
150 132 169 13 4 53 6 89 5 55 -2 72 -7 103 -30z"/>
</g>
</svg>
